<svg width="80" height="80" viewBox="0 0 80 80" fill="none" xmlns="http://www.w3.org/2000/svg">
<g clip-path="url(#clip0_12_3182)">
<path d="M40 80C62.0914 80 80 62.0914 80 40C80 17.9086 62.0914 0 40 0C17.9086 0 0 17.9086 0 40C0 62.0914 17.9086 80 40 80Z" fill="#2E6480"/>
<path d="M80.002 39.9648C80.002 48.703 77.1406 57.2008 71.8552 64.1593C66.5698 71.1178 59.1511 76.1541 50.7333 78.4984C42.3154 80.8427 33.3615 80.366 25.2401 77.1412C17.1187 73.9164 10.2767 68.1209 5.76001 60.6405C5.76001 60.6405 9.09338 43.9739 22.881 50.3027C36.6686 56.6315 40.002 39.9648 40.002 39.9648L63.3353 50.3027L80.002 39.9648Z" fill="#5A9AB5"/>
<path d="M80.002 39.9646C80.002 46.9206 78.188 53.7563 74.7391 59.7971C71.2902 65.8379 66.3256 70.8749 60.3354 74.4109C60.3354 74.4109 40.002 61.0776 50.1687 57.1877C60.3354 53.2979 40.002 39.9646 40.002 39.9646C40.002 39.9646 56.6686 29.9645 60.002 39.9646C63.3353 49.9647 80.002 39.9646 80.002 39.9646Z" fill="#E8F1F8"/>
</g>
<defs>
<clipPath id="clip0_12_3182">
<rect width="80" height="80" fill="white"/>
</clipPath>
</defs>
</svg>
